<svg width="49" height="110" viewBox="0 0 49 110" fill="none" xmlns="http://www.w3.org/2000/svg">
<path d="M42.4057 86C44.9057 73.5 42.4057 43 42.4057 42.5C30.4057 51.5 14.9057 45 7.9057 45C5.9057 47.5 8.9057 82 10.9057 94C12.9057 106 15.9057 103.5 18.9057 97.5C21.9057 91.5 18.9057 74 21.9057 69C24.9057 64 27.9057 68 31.4057 74C34.9057 80 29.4057 103.5 33.4057 108C37.4057 112.5 39.9057 98.5 42.4057 86Z" fill="white"/>
<path d="M47.9057 11C49.1057 0.600001 37.4057 0.666668 31.4057 2C24.4057 1 26.4057 2 14.9057 2C3.4057 2 0.405701 9 1.4057 13.5C2.2057 17.1 3.07237 26.6667 3.4057 31C2.9057 34.3333 5.2057 41.3 18.4057 42.5C34.9057 44 40.4057 38 42.4057 36.5C44.4057 35 46.4057 24 47.9057 11Z" fill="white"/>
<path d="M42.4057 86C44.9057 73.5 42.4057 43 42.4057 42.5C30.4057 51.5 14.9057 45 7.9057 45C5.9057 47.5 8.9057 82 10.9057 94C12.9057 106 15.9057 103.5 18.9057 97.5C21.9057 91.5 18.9057 74 21.9057 69C24.9057 64 27.9057 68 31.4057 74C34.9057 80 29.4057 103.5 33.4057 108C37.4057 112.5 39.9057 98.5 42.4057 86Z" stroke="black" stroke-width="2"/>
<path d="M47.9057 11C49.1057 0.600001 37.4057 0.666668 31.4057 2C24.4057 1 26.4057 2 14.9057 2C3.4057 2 0.405701 9 1.4057 13.5C2.2057 17.1 3.07237 26.6667 3.4057 31C2.9057 34.3333 5.2057 41.3 18.4057 42.5C34.9057 44 40.4057 38 42.4057 36.5C44.4057 35 46.4057 24 47.9057 11Z" stroke="black" stroke-width="2"/>
</svg>
