<svg width="48" height="118" viewBox="0 0 48 118" fill="none" xmlns="http://www.w3.org/2000/svg">
<path d="M5.5 68C5.69627 67.8037 5.90305 67.6032 6.11991 67.3992C10.5011 60.9691 15.7728 9.27269 21.5 4.5C27.5 -0.499998 28.5 -1.5 31.5 25C34.5 51.5 37 47.5 38 61.5C26.0295 53.3909 12.164 61.7149 6.11991 67.3992C5.91123 67.7055 5.70459 67.9091 5.5 68Z" fill="white"/>
<path d="M1.5 86.5C9.5 59.7 29.1667 61.6667 38 66C48.5 72.5 46 88.5 46 101.5C46 114.5 41 116.5 38 116.5H12.5C2.5 116.5 1.66893e-06 109 1.5 86.5Z" fill="white"/>
<path d="M5.5 68C11.1667 62.3333 25.6 53.1 38 61.5C37 47.5 34.5 51.5 31.5 25C28.5 -1.5 27.5 -0.499998 21.5 4.5C15.5 9.5 10 66 5.5 68ZM38 66C29.1667 61.6667 9.5 59.7 1.5 86.5C1.66893e-06 109 2.5 116.5 12.5 116.5C22.5 116.5 35 116.5 38 116.5C41 116.5 46 114.5 46 101.5C46 88.5 48.5 72.5 38 66Z" stroke="black" stroke-width="2"/>
</svg>
