<svg width="34" height="109" viewBox="0 0 34 109" fill="none" xmlns="http://www.w3.org/2000/svg">
<path d="M32.4057 6C32.0057 0.400002 23.2391 0.666668 18.9057 1.5C12.9057 1.92287 3.90573 2 2.40573 5C0.905725 8 0.405724 19.5 1.90573 25C3.40573 30.5 10.4057 39 16.4057 42.5C21.2057 45.3 29.0724 37 32.4057 32.5C32.5724 26 32.8057 11.6 32.4057 6Z" fill="white"/>
<path d="M18.4057 48.5C12.4057 49.7 6.57239 42.6667 4.40573 39C5.40573 48 7.80573 69.3 9.40573 82.5C11.4057 99 14.9057 107 17.4057 107.5C19.9057 108 21.9057 98.5 23.9057 87.5C25.5057 78.7 29.2391 52.8333 30.9057 41C29.2391 43 24.4057 47.3 18.4057 48.5Z" fill="white"/>
<path d="M32.4057 6C32.0057 0.400002 23.2391 0.666668 18.9057 1.5C12.9057 1.92287 3.90573 2 2.40573 5C0.905725 8 0.405724 19.5 1.90573 25C3.40573 30.5 10.4057 39 16.4057 42.5C21.2057 45.3 29.0724 37 32.4057 32.5C32.5724 26 32.8057 11.6 32.4057 6Z" stroke="black" stroke-width="2"/>
<path d="M18.4057 48.5C12.4057 49.7 6.57239 42.6667 4.40573 39C5.40573 48 7.80573 69.3 9.40573 82.5C11.4057 99 14.9057 107 17.4057 107.5C19.9057 108 21.9057 98.5 23.9057 87.5C25.5057 78.7 29.2391 52.8333 30.9057 41C29.2391 43 24.4057 47.3 18.4057 48.5Z" stroke="black" stroke-width="2"/>
</svg>
