<svg width="57" height="56" viewBox="0 0 57 56" fill="none" xmlns="http://www.w3.org/2000/svg">
<path d="M19 17.3594H40V38.3594H19V17.3594Z" fill="white"/>
<path d="M40 17.8594L50.6667 5.12678M50.6667 5.12678C51.0142 5.35472 51.348 5.59867 51.6667 5.85941C56.0667 9.45941 54.1667 23.3594 52.6667 29.8594C54.5578 34.4295 56.9852 44.5723 52.5102 50.3976M50.6667 5.12678C45.0162 1.42071 35.7321 1.94632 28.6667 3.35941C23.0053 0.975678 11.3244 -1.38142 5.48089 5.85941M19 17.3594L5.48089 5.85941M19 17.3594H40V38.3594M19 17.3594V38.3594M5.48089 5.85941C4.7873 6.71885 4.17595 7.71352 3.66667 8.85941C-2.33333 22.3594 3.66667 30.3594 3.66667 31.3594C3.66667 32.3594 0.666687 46.3594 4.66669 49.3594C5.12503 49.7032 5.61619 50.0535 6.14696 50.3976M19 38.3594L6.14696 50.3976M19 38.3594H40M6.14696 50.3976C10.2482 53.0565 16.7136 55.3438 28.6667 51.3594C31.6667 51.3594 44.6667 58.3594 51.6667 51.3594C51.9717 51.0544 52.2524 50.7332 52.5102 50.3976M40 38.3594L52.5102 50.3976" stroke="black" stroke-width="2"/>
</svg>
