<svg width="43" height="112" viewBox="0 0 43 112" fill="none" xmlns="http://www.w3.org/2000/svg">
<path d="M32.7601 7C31.9601 -1.4 29.4268 2.5 28.2601 5.5L6.26013 64C7.59346 64 11.6601 63.6 17.2601 62C22.8601 60.4 31.2601 62.6667 34.7601 64C34.4268 48.5 33.5601 15.4 32.7601 7Z" fill="white"/>
<path d="M19.7601 16C18.5935 12.1667 15.8601 4 14.2601 2C8.26015 3.6 9.42681 27.6667 10.7601 39.5L19.7601 16Z" fill="white"/>
<path d="M37.2601 79C34.4601 64.6 24.4268 64.6667 19.7601 66.5C0.960148 66.5 0.593464 86.8333 2.76013 97C4.59346 99.8333 9.86015 106.3 16.2601 109.5C24.2601 113.5 30.7601 108.5 37.2601 102.5C43.7601 96.5 40.7601 97 37.2601 79Z" fill="white"/>
<path d="M32.7601 7C31.9601 -1.4 29.4268 2.5 28.2601 5.5L6.26013 64C7.59346 64 11.6601 63.6 17.2601 62C22.8601 60.4 31.2601 62.6667 34.7601 64C34.4268 48.5 33.5601 15.4 32.7601 7Z" stroke="black" stroke-width="2"/>
<path d="M19.7601 16C18.5935 12.1667 15.8601 4 14.2601 2C8.26015 3.6 9.42681 27.6667 10.7601 39.5L19.7601 16Z" stroke="black" stroke-width="2"/>
<path d="M37.2601 79C34.4601 64.6 24.4268 64.6667 19.7601 66.5C0.960148 66.5 0.593464 86.8333 2.76013 97C4.59346 99.8333 9.86015 106.3 16.2601 109.5C24.2601 113.5 30.7601 108.5 37.2601 102.5C43.7601 96.5 40.7601 97 37.2601 79Z" stroke="black" stroke-width="2"/>
</svg>
