<svg width="41" height="114" viewBox="0 0 41 114" fill="none" xmlns="http://www.w3.org/2000/svg">
<path d="M16.5 104C14.9 99.2 8.83333 63 5.99999 45.5C18.4 54.7 31.1667 49.3333 36 45.5C35.1667 50.3333 33 61.5 31 67.5C28.5 75 29.5 97 26 107.5C22.5 118 18.5 110 16.5 104Z" fill="white"/>
<path d="M1.49999 16C1.89999 10 14.6667 3.5 21 1C25.4 1 35.5 8.33333 40 12V29C40 32 39.5 34.5 36 40C32.5 45.5 24 47 15.5 46.5C8.7 46.1 4.66666 40.3333 3.49999 37.5C2.66666 32.8333 1.09999 22 1.49999 16Z" fill="white"/>
<path d="M16.5 104C14.9 99.2 8.83333 63 5.99999 45.5C18.4 54.7 31.1667 49.3333 36 45.5C35.1667 50.3333 33 61.5 31 67.5C28.5 75 29.5 97 26 107.5C22.5 118 18.5 110 16.5 104Z" stroke="black" stroke-width="2"/>
<path d="M1.49999 16C1.89999 10 14.6667 3.5 21 1C25.4 1 35.5 8.33333 40 12V29C40 32 39.5 34.5 36 40C32.5 45.5 24 47 15.5 46.5C8.7 46.1 4.66666 40.3333 3.49999 37.5C2.66666 32.8333 1.09999 22 1.49999 16Z" stroke="black" stroke-width="2"/>
</svg>
