<svg width="42" height="114" viewBox="0 0 42 114" fill="none" xmlns="http://www.w3.org/2000/svg">
<path d="M25.4057 104C27.0057 99.2 33.0724 63 35.9057 45.5C23.5057 54.7 10.739 49.3333 5.9057 45.5C6.73904 50.3333 8.90571 61.5 10.9057 67.5C13.4057 75 12.4057 97 15.9057 107.5C19.4057 118 23.4057 110 25.4057 104Z" fill="white"/>
<path d="M40.4057 16C40.0057 10 27.239 3.5 20.9057 1C16.5057 1 6.4057 8.33333 1.9057 12V29C1.9057 32 2.4057 34.5 5.9057 40C9.40571 45.5 17.9057 47 26.4057 46.5C33.2057 46.1 37.239 40.3333 38.4057 37.5C39.239 32.8333 40.8057 22 40.4057 16Z" fill="white"/>
<path d="M25.4057 104C27.0057 99.2 33.0724 63 35.9057 45.5C23.5057 54.7 10.739 49.3333 5.9057 45.5C6.73904 50.3333 8.90571 61.5 10.9057 67.5C13.4057 75 12.4057 97 15.9057 107.5C19.4057 118 23.4057 110 25.4057 104Z" stroke="black" stroke-width="2"/>
<path d="M40.4057 16C40.0057 10 27.239 3.5 20.9057 1C16.5057 1 6.4057 8.33333 1.9057 12V29C1.9057 32 2.4057 34.5 5.9057 40C9.40571 45.5 17.9057 47 26.4057 46.5C33.2057 46.1 37.239 40.3333 38.4057 37.5C39.239 32.8333 40.8057 22 40.4057 16Z" stroke="black" stroke-width="2"/>
</svg>
