<svg width="50" height="109" viewBox="0 0 50 109" fill="none" xmlns="http://www.w3.org/2000/svg">
<path d="M5 69C8.5 59.5 28.5 59 29.5 59C35.9 59.4 44.8333 67.1667 48.5 71C48.6667 76.1667 48.9 88.4 48.5 96C48 105.5 43 105.5 39 104.5C35 103.5 21.5 108 11.5 107C1.5 106 2 99 2 93C2 87 1.5 78.5 5 69Z" fill="white"/>
<path d="M6.5 35.5C5.7 18.7 9.83334 10.5 12 8.5C17.5 8.5 18.5 27 18 28C17.5 29 18.5 53.5 28 49C37.5 44.5 28 4 37 5C46 6 47.5 55.5 45.5 60C43.5 64.5 43.5 59 34.5 55.5C25.5 52 14.5 57 10.5 58C6.5 59 6.5 58 6.5 55.5C6.5 53 7.5 56.5 6.5 35.5Z" fill="white"/>
<path d="M21.5 31.5C19.5 16 19.9 0.999999 21.5 1.5C27.9 3.5 29.5 27 29.5 38.5C28.5 43 25.5 47.9 21.5 31.5Z" fill="white"/>
<path d="M5 69C8.5 59.5 28.5 59 29.5 59C35.9 59.4 44.8333 67.1667 48.5 71C48.6667 76.1667 48.9 88.4 48.5 96C48 105.5 43 105.5 39 104.5C35 103.5 21.5 108 11.5 107C1.5 106 2 99 2 93C2 87 1.5 78.5 5 69Z" stroke="black" stroke-width="2"/>
<path d="M6.5 35.5C5.7 18.7 9.83334 10.5 12 8.5C17.5 8.5 18.5 27 18 28C17.5 29 18.5 53.5 28 49C37.5 44.5 28 4 37 5C46 6 47.5 55.5 45.5 60C43.5 64.5 43.5 59 34.5 55.5C25.5 52 14.5 57 10.5 58C6.5 59 6.5 58 6.5 55.5C6.5 53 7.5 56.5 6.5 35.5Z" stroke="black" stroke-width="2"/>
<path d="M21.5 31.5C19.5 16 19.9 0.999999 21.5 1.5C27.9 3.5 29.5 27 29.5 38.5C28.5 43 25.5 47.9 21.5 31.5Z" stroke="black" stroke-width="2"/>
</svg>
