<svg width="46" height="99" viewBox="0 0 46 99" fill="none" xmlns="http://www.w3.org/2000/svg">
<path d="M32.2601 26.5C33.8601 14.9 35.9268 10.6667 36.7601 10C41.2601 15 42.7601 47.5 36.7601 55C23.9601 48.6 9.09348 54 3.26014 57.5C3.42681 52.1667 4.06014 38 5.26014 24C6.46014 10 10.4268 5.5 12.2601 5C13.2601 8.66667 15.2601 19.2 15.2601 32C15.2601 44.8 21.2601 47.6667 24.2601 47.5C26.2601 45.3333 30.6601 38.1 32.2601 26.5Z" fill="white"/>
<path d="M28.2601 2C29.5935 9.5 30.2601 27.8 22.2601 41C19.7601 34.5 13.2601 12.5 28.2601 2Z" fill="white"/>
<path d="M43.7601 70C41.2601 57.5 24.2601 57.5 21.2601 57.5C7.66014 59.5 3.59348 65.3333 3.26014 68C3.26014 70.1667 2.96014 77 1.76013 87C0.560123 97 7.59346 98.1667 11.2601 97.5C13.9268 97.1667 21.8601 96.5 32.2601 96.5C42.6602 96.5 44.2601 92.8333 43.7601 91C44.5935 88.1667 45.7601 80 43.7601 70Z" fill="white"/>
<path d="M32.2601 26.5C33.8601 14.9 35.9268 10.6667 36.7601 10C41.2601 15 42.7601 47.5 36.7601 55C23.9601 48.6 9.09348 54 3.26014 57.5C3.42681 52.1667 4.06014 38 5.26014 24C6.46014 10 10.4268 5.5 12.2601 5C13.2601 8.66667 15.2601 19.2 15.2601 32C15.2601 44.8 21.2601 47.6667 24.2601 47.5C26.2601 45.3333 30.6601 38.1 32.2601 26.5Z" stroke="black" stroke-width="2"/>
<path d="M28.2601 2C29.5935 9.5 30.2601 27.8 22.2601 41C19.7601 34.5 13.2601 12.5 28.2601 2Z" stroke="black" stroke-width="2"/>
<path d="M43.7601 70C41.2601 57.5 24.2601 57.5 21.2601 57.5C7.66014 59.5 3.59348 65.3333 3.26014 68C3.26014 70.1667 2.96014 77 1.76013 87C0.560123 97 7.59346 98.1667 11.2601 97.5C13.9268 97.1667 21.8601 96.5 32.2601 96.5C42.6602 96.5 44.2601 92.8333 43.7601 91C44.5935 88.1667 45.7601 80 43.7601 70Z" stroke="black" stroke-width="2"/>
</svg>
