<svg width="50" height="109" viewBox="0 0 50 109" fill="none" xmlns="http://www.w3.org/2000/svg">
<path d="M45.2601 69C41.7601 59.5 21.7601 59 20.7601 59C14.3601 59.4 5.42677 67.1667 1.7601 71C1.59343 76.1667 1.3601 88.4 1.7601 96C2.2601 105.5 7.2601 105.5 11.2601 104.5C15.2601 103.5 28.7601 108 38.7601 107C48.7601 106 48.2601 99 48.2601 93C48.2601 87 48.7601 78.5 45.2601 69Z" fill="white"/>
<path d="M43.7601 35.5C44.5601 18.7 40.4268 10.5 38.2601 8.5C32.7601 8.5 31.7601 27 32.2601 28C32.7601 29 31.7601 53.5 22.2601 49C12.7601 44.5 22.2601 4 13.2601 5C4.2601 6 2.7601 55.5 4.7601 60C6.7601 64.5 6.7601 59 15.7601 55.5C24.7601 52 35.7601 57 39.7601 58C43.7601 59 43.7601 58 43.7601 55.5C43.7601 53 42.7601 56.5 43.7601 35.5Z" fill="white"/>
<path d="M28.7601 31.5C30.7601 16 30.3601 0.999999 28.7601 1.5C22.3601 3.5 20.7601 27 20.7601 38.5C21.7601 43 24.7601 47.9 28.7601 31.5Z" fill="white"/>
<path d="M45.2601 69C41.7601 59.5 21.7601 59 20.7601 59C14.3601 59.4 5.42677 67.1667 1.7601 71C1.59343 76.1667 1.3601 88.4 1.7601 96C2.2601 105.5 7.2601 105.5 11.2601 104.5C15.2601 103.5 28.7601 108 38.7601 107C48.7601 106 48.2601 99 48.2601 93C48.2601 87 48.7601 78.5 45.2601 69Z" stroke="black" stroke-width="2"/>
<path d="M43.7601 35.5C44.5601 18.7 40.4268 10.5 38.2601 8.5C32.7601 8.5 31.7601 27 32.2601 28C32.7601 29 31.7601 53.5 22.2601 49C12.7601 44.5 22.2601 4 13.2601 5C4.2601 6 2.7601 55.5 4.7601 60C6.7601 64.5 6.7601 59 15.7601 55.5C24.7601 52 35.7601 57 39.7601 58C43.7601 59 43.7601 58 43.7601 55.5C43.7601 53 42.7601 56.5 43.7601 35.5Z" stroke="black" stroke-width="2"/>
<path d="M28.7601 31.5C30.7601 16 30.3601 0.999999 28.7601 1.5C22.3601 3.5 20.7601 27 20.7601 38.5C21.7601 43 24.7601 47.9 28.7601 31.5Z" stroke="black" stroke-width="2"/>
</svg>
