<svg width="43" height="130" viewBox="0 0 43 130" fill="none" xmlns="http://www.w3.org/2000/svg">
<path d="M33.2601 50C30.8601 24 24.5934 6.83333 21.7601 1.5C12.7601 3.5 12.2601 24.5 11.7601 34.5C11.3601 42.5 9.26009 65.5 8.26009 76C8.92676 75.5 12.1601 73.9 19.7601 71.5C27.0941 69.184 33.7763 75.0629 36.4816 78.6224C36.6293 79.2502 36.7185 79.2909 36.7601 79C36.6726 78.8775 36.5797 78.7515 36.4816 78.6224C36.0369 76.732 35.0617 69.5179 33.2601 50Z" fill="white"/>
<path d="M41.7601 100.5C40.1601 81.3 27.0934 76.8333 20.7601 77C1.76009 79.5 0.760094 100.5 1.26009 109.5C1.76009 118.5 20.7601 129 23.2601 129C25.7601 129 43.7601 124.5 41.7601 100.5Z" fill="white"/>
<path d="M21.7601 1.5C24.5934 6.83333 30.8601 24 33.2601 50C35.6601 76 36.5934 80.1667 36.7601 79C34.2601 75.5 27.3601 69.1 19.7601 71.5C12.1601 73.9 8.92676 75.5 8.26009 76C9.26009 65.5 11.3601 42.5 11.7601 34.5C12.2601 24.5 12.7601 3.5 21.7601 1.5ZM20.7601 77C27.0934 76.8333 40.1601 81.3 41.7601 100.5C43.7601 124.5 25.7601 129 23.2601 129C20.7601 129 1.76009 118.5 1.26009 109.5C0.760094 100.5 1.76009 79.5 20.7601 77Z" stroke="black" stroke-width="2"/>
</svg>
