<svg width="41" height="113" viewBox="0 0 41 113" fill="none" xmlns="http://www.w3.org/2000/svg">
<path d="M2 14.5C3.5 6.5 15 3.5 19 1C28.6 1 36.3333 8 39 11.5C39.1667 17 39.4 29.4 39 35C38.5 42 35 46 22.5 46C10 46 5 40 4 39.5C3 39 0.500001 22.5 2 14.5Z" fill="white"/>
<path d="M9.5 75.5C4.7 60.3 4.16667 49.1667 4.5 45.5C23.7 55.1 34.1667 49.8333 37 46C36.8333 48.3333 36.4 53.5 36 55.5C35.5 58 28.5 84 27.5 99C26.5 114 22.5 113 18.5 109.5C14.5 106 15.5 94.5 9.5 75.5Z" fill="white"/>
<path d="M2 14.5C3.5 6.5 15 3.5 19 1C28.6 1 36.3333 8 39 11.5C39.1667 17 39.4 29.4 39 35C38.5 42 35 46 22.5 46C10 46 5 40 4 39.5C3 39 0.500001 22.5 2 14.5Z" stroke="black" stroke-width="2"/>
<path d="M9.5 75.5C4.7 60.3 4.16667 49.1667 4.5 45.5C23.7 55.1 34.1667 49.8333 37 46C36.8333 48.3333 36.4 53.5 36 55.5C35.5 58 28.5 84 27.5 99C26.5 114 22.5 113 18.5 109.5C14.5 106 15.5 94.5 9.5 75.5Z" stroke="black" stroke-width="2"/>
</svg>
