<svg width="41" height="110" viewBox="0 0 41 110" fill="none" xmlns="http://www.w3.org/2000/svg">
<path d="M9.99999 34C12.4 21.2 17.6667 7.33333 20 1.99999C30 0.999992 29.5 36 29.5 39C29.5 41.4 31.5 53 32.5 58.5C32.8333 58.8333 31.7 58.9 24.5 56.5C17.3 54.1 8.49999 59.8333 4.99999 63C5.66666 58.6667 7.59999 46.8 9.99999 34Z" fill="white"/>
<path d="M1.99999 79C4.39999 64.6 15.6667 60.6667 21 60.5C42 61.5 40 88.5 38.5 95C37 101.5 31.5 107 24.5 108.5C17.5 110 5.99999 104.5 4.99999 103.5C3.99999 102.5 -1.00001 97 1.99999 79Z" fill="white"/>
<path d="M9.99999 34C12.4 21.2 17.6667 7.33333 20 1.99999C30 0.999992 29.5 36 29.5 39C29.5 41.4 31.5 53 32.5 58.5C32.8333 58.8333 31.7 58.9 24.5 56.5C17.3 54.1 8.49999 59.8333 4.99999 63C5.66666 58.6667 7.59999 46.8 9.99999 34Z" stroke="black" stroke-width="2"/>
<path d="M1.99999 79C4.39999 64.6 15.6667 60.6667 21 60.5C42 61.5 40 88.5 38.5 95C37 101.5 31.5 107 24.5 108.5C17.5 110 5.99999 104.5 4.99999 103.5C3.99999 102.5 -1.00001 97 1.99999 79Z" stroke="black" stroke-width="2"/>
</svg>
