<svg width="57" height="57" viewBox="0 0 57 57" fill="none" xmlns="http://www.w3.org/2000/svg">
<path d="M41 28C41 34.6274 35.6274 40 29 40C22.3726 40 17 34.6274 17 28C17 21.3726 22.3726 16 29 16C35.6274 16 41 21.3726 41 28Z" fill="white"/>
<path d="M37.5 20L51 5.76737M51 5.76737C51.3475 5.99531 51.6813 6.23926 52 6.5C56.4 10.1 54.5 24 53 30.5C54.8911 35.0701 57.3185 45.2129 52.8435 51.0382M51 5.76737C45.3496 2.0613 36.0654 2.58691 29 4C23.3386 1.61627 11.6577 -0.740827 5.81421 6.5M21 20L5.81421 6.5M5.81421 6.5C5.12062 7.35945 4.50926 8.35411 3.99998 9.5C-2.00002 23 3.99998 31 3.99998 32C3.99998 33 1 47 5 50C5.45834 50.3438 5.94951 50.6941 6.48027 51.0382M20.0556 36L6.48027 51.0382M6.48027 51.0382C10.5815 53.6971 17.0469 55.9844 29 52C32 52 45 59 52 52C52.305 51.695 52.5857 51.3737 52.8435 51.0382M36.9375 37L52.8435 51.0382M41 28C41 34.6274 35.6274 40 29 40C22.3726 40 17 34.6274 17 28C17 21.3726 22.3726 16 29 16C35.6274 16 41 21.3726 41 28Z" stroke="black" stroke-width="2"/>
</svg>
