<svg width="42" height="125" viewBox="0 0 42 125" fill="none" xmlns="http://www.w3.org/2000/svg">
<path d="M2.49999 14.5C3.29999 7.7 18.1667 3.33333 25.5 2C31.9 2.8 37.8333 11.6667 40 16C40.5 18.3333 41.2 25 40 33C38.5 43 32.5 50 24.5 50.5C16.5 51 7.99999 42 4.49999 37C0.999994 32 1.49999 23 2.49999 14.5Z" fill="white"/>
<path d="M23 57C14.2 58.2 8 48.8333 6 44C4 57.5 14 92.5 15.5 98.5C15.5 107.7 18.1667 116.333 19.5 119.5C22.3 127.5 29.3333 123 29 119.5C28.6667 116 28.9 105 32.5 89C36.1 73 37.6667 55 38 48C36.6667 50.5 31.8 55.8 23 57Z" fill="white"/>
<path d="M2.49999 14.5C3.29999 7.7 18.1667 3.33333 25.5 2C31.9 2.8 37.8333 11.6667 40 16C40.5 18.3333 41.2 25 40 33C38.5 43 32.5 50 24.5 50.5C16.5 51 7.99999 42 4.49999 37C0.999994 32 1.49999 23 2.49999 14.5Z" stroke="black" stroke-width="2"/>
<path d="M23 57C14.2 58.2 8 48.8333 6 44C4 57.5 14 92.5 15.5 98.5C15.5 107.7 18.1667 116.333 19.5 119.5C22.3 127.5 29.3333 123 29 119.5C28.6667 116 28.9 105 32.5 89C36.1 73 37.6667 55 38 48C36.6667 50.5 31.8 55.8 23 57Z" stroke="black" stroke-width="2"/>
</svg>
